<?xml version="1.0" encoding="UTF-8" standalone="no"?>
<!DOCTYPE svg PUBLIC "-//W3C//DTD SVG 1.1//EN" "http://www.w3.org/Graphics/SVG/1.1/DTD/svg11.dtd">
<svg width="100%" height="100%" viewBox="0 0 1280 800" version="1.1" xmlns="http://www.w3.org/2000/svg" xmlns:xlink="http://www.w3.org/1999/xlink" xml:space="preserve" xmlns:serif="http://www.serif.com/" style="fill-rule:evenodd;clip-rule:evenodd;stroke-linecap:round;stroke-linejoin:round;stroke-miterlimit:1.5;">
    <rect x="-47.461" y="-41.012" width="1443.51" height="880.705" style="fill:rgb(176,240,198);stroke:black;stroke-width:0.78px;"/>
    <g transform="matrix(0.821604,0,0,0.601479,-672.593,225.312)">
        <path d="M1087.95,229.677C1147.77,229.677 1196.34,310.622 1196.34,410.323C1196.34,510.023 1147.77,590.968 1087.95,590.968C1028.13,590.968 979.567,510.023 979.567,410.323C979.567,310.622 1028.13,229.677 1087.95,229.677ZM1087.95,320C1117.86,320 1142.15,360.472 1142.15,410.323C1142.15,460.173 1117.86,500.645 1087.95,500.645C1058.04,500.645 1033.76,460.173 1033.76,410.323C1033.76,360.472 1058.04,320 1087.95,320Z" style="fill:rgb(162,162,162);"/>
    </g>
    <g transform="matrix(0.78892,0,0,0.577552,-646.332,235.164)">
        <path d="M1087.95,229.677C1147.77,229.677 1196.34,310.622 1196.34,410.323C1196.34,510.023 1147.77,590.968 1087.95,590.968C1028.13,590.968 979.567,510.023 979.567,410.323C979.567,310.622 1028.13,229.677 1087.95,229.677ZM1087.95,320C1117.86,320 1142.15,360.472 1142.15,410.323C1142.15,460.173 1117.86,500.645 1087.95,500.645C1058.04,500.645 1033.76,460.173 1033.76,410.323C1033.76,360.472 1058.04,320 1087.95,320Z" style="fill:rgb(182,182,182);"/>
    </g>
    <g transform="matrix(0.639189,-0.460998,0.83526,1.15812,-76.6124,427.078)">
        <path d="M1085.23,288.516C1085.23,282.249 1076.01,277.161 1064.65,277.161L748.64,277.161C737.285,277.161 728.067,282.249 728.067,288.516L728.067,311.226C728.067,317.493 737.285,322.581 748.64,322.581L1064.65,322.581C1076.01,322.581 1085.23,317.493 1085.23,311.226L1085.23,288.516Z" style="fill:rgb(150,150,150);"/>
    </g>
    <g transform="matrix(0.570466,-0.411433,0.745457,1.0336,22.857,407.801)">
        <path d="M1085.23,288.516C1085.23,282.249 1076.01,277.161 1064.65,277.161L748.64,277.161C737.285,277.161 728.067,282.249 728.067,288.516L728.067,311.226C728.067,317.493 737.285,322.581 748.64,322.581L1064.65,322.581C1076.01,322.581 1085.23,317.493 1085.23,311.226L1085.23,288.516Z" style="fill:rgb(182,182,182);"/>
    </g>
    <g transform="matrix(0.182042,-0.679389,1.23095,0.329833,-197.92,1115.72)">
        <path d="M1085.23,288.516C1085.23,282.249 1076.01,277.161 1064.65,277.161L748.64,277.161C737.285,277.161 728.067,282.249 728.067,288.516L728.067,311.226C728.067,317.493 737.285,322.581 748.64,322.581L1064.65,322.581C1076.01,322.581 1085.23,317.493 1085.23,311.226L1085.23,288.516Z" style="fill:rgb(182,182,182);"/>
    </g>
    <g transform="matrix(0.182042,-0.679389,1.23095,0.329833,-188.671,1121)">
        <path d="M1085.23,288.516C1085.23,282.249 1076.01,277.161 1064.65,277.161L748.64,277.161C737.285,277.161 728.067,282.249 728.067,288.516L728.067,311.226C728.067,317.493 737.285,322.581 748.64,322.581L1064.65,322.581C1076.01,322.581 1085.23,317.493 1085.23,311.226L1085.23,288.516Z" style="fill:rgb(150,150,150);"/>
    </g>
    <g transform="matrix(-0.182042,-0.679389,1.23095,-0.329833,380.562,1311.47)">
        <path d="M1085.23,288.516C1085.23,282.249 1076.01,277.161 1064.65,277.161L748.64,277.161C737.285,277.161 728.067,282.249 728.067,288.516L728.067,311.226C728.067,317.493 737.285,322.581 748.64,322.581L1064.65,322.581C1076.01,322.581 1085.23,317.493 1085.23,311.226L1085.23,288.516Z" style="fill:rgb(182,182,182);"/>
    </g>
    <g transform="matrix(1.01113,0,0,1.15193,-306.403,-137.808)">
        <path d="M1004.34,335.953C1004.34,276.159 949.035,227.613 880.914,227.613L634.06,227.613C565.938,227.613 510.632,276.159 510.632,335.953L510.632,554.886C510.632,614.68 565.938,663.226 634.06,663.226L880.914,663.226C949.035,663.226 1004.34,614.68 1004.34,554.886L1004.34,335.953Z" style="fill:rgb(255,208,49);"/>
    </g>
    <g transform="matrix(0.992366,0,0,1.13056,-289.38,-129.56)">
        <path d="M1004.34,335.953C1004.34,276.159 949.035,227.613 880.914,227.613L634.06,227.613C565.938,227.613 510.632,276.159 510.632,335.953L510.632,554.886C510.632,614.68 565.938,663.226 634.06,663.226L880.914,663.226C949.035,663.226 1004.34,614.68 1004.34,554.886L1004.34,335.953Z" style="fill:url(#_Linear1);"/>
    </g>
    <g transform="matrix(1.42549,0,0,1.86837,-604.966,-117.45)">
        <ellipse cx="745.987" cy="153.29" rx="181.677" ry="39.226" style="fill:rgb(255,208,49);"/>
    </g>
    <g transform="matrix(1,0,0,1,-305.548,6.19355)">
        <g transform="matrix(1.38481,0,0,1.71279,-272.332,-101.95)">
            <ellipse cx="745.987" cy="153.29" rx="181.677" ry="39.226" style="fill:rgb(255,208,91);"/>
        </g>
        <g transform="matrix(1.29163,0,0,1.52712,-202.407,-70.4482)">
            <ellipse cx="745.987" cy="153.29" rx="181.677" ry="39.226" style="fill:url(#_Linear2);"/>
        </g>
    </g>
    <g transform="matrix(1.08564,0,0,1.08564,-979.919,16.8693)">
        <ellipse cx="1102.4" cy="498.065" rx="42.323" ry="41.29" style="fill:rgb(44,44,44);"/>
    </g>
    <g transform="matrix(0.94971,0,0,0.94971,-422.69,257.41)">
        <ellipse cx="1102.4" cy="498.065" rx="42.323" ry="41.29" style="fill:rgb(44,44,44);"/>
    </g>
    <g transform="matrix(0.901859,0,0,0.901859,-688.533,282.9)">
        <ellipse cx="1102.4" cy="498.065" rx="42.323" ry="41.29" style="fill:rgb(44,44,44);"/>
    </g>
    <g transform="matrix(0.901859,0,0,0.901859,-695.139,284.221)">
        <ellipse cx="1102.4" cy="498.065" rx="42.323" ry="41.29" style="fill:rgb(44,44,44);"/>
    </g>
    <g transform="matrix(1.08564,0,0,1.08564,-312.749,-282.733)">
        <ellipse cx="1102.4" cy="498.065" rx="42.323" ry="41.29" style="fill:rgb(44,44,44);"/>
    </g>
    <g transform="matrix(1,0,0,1,-165.161,78.4516)">
        <ellipse cx="1068.71" cy="144" rx="189.935" ry="23.742" style="fill:rgb(225,222,222);"/>
    </g>
    <g transform="matrix(0.804682,0,0,0.543813,43.6406,141.57)">
        <ellipse cx="1068.71" cy="144" rx="189.935" ry="23.742" style="fill:rgb(209,205,205);"/>
    </g>
    <g transform="matrix(1,0,0,1,35.0968,-35.0968)">
        <text x="800.325px" y="250.323px" style="font-family:'ARDELANEY', 'AR DELANEY';font-size:250.748px;fill:rgb(62,156,94);">$</text>
    </g>
    <g transform="matrix(1,0,0,1,119.659,-35.0968)">
        <text x="800.325px" y="250.323px" style="font-family:'ARDELANEY', 'AR DELANEY';font-size:250.748px;fill:rgb(62,156,94);">$</text>
    </g>
    <g transform="matrix(1,0,0,1,-50.787,-35.0968)">
        <text x="800.325px" y="250.323px" style="font-family:'ARDELANEY', 'AR DELANEY';font-size:250.748px;fill:rgb(62,156,94);">$</text>
    </g>
    <g transform="matrix(0.43728,1.63195,-1.63195,0.43728,739.693,-1272.05)">
        <path d="M834.389,436.129C822.425,436.129 812.712,456.018 812.712,480.516C812.712,505.014 822.425,524.903 834.389,524.903C828.407,517.505 823.55,500.163 823.55,480.516C823.55,460.869 828.407,443.527 834.389,436.129Z" style="fill:rgb(115,51,23);"/>
    </g>
    <g transform="matrix(-0.43728,1.63195,-1.63195,-0.43728,1709.42,-852.847)">
        <path d="M834.389,436.129C822.425,436.129 812.712,456.018 812.712,480.516C812.712,505.014 822.425,524.903 834.389,524.903C828.407,517.505 823.55,500.163 823.55,480.516C823.55,460.869 828.407,443.527 834.389,436.129Z" style="fill:rgb(115,51,23);"/>
    </g>
    <g transform="matrix(1.59105,0,0,1.59105,-205.803,-203.518)">
        <ellipse cx="334.776" cy="328.774" rx="13.419" ry="12.387" style="fill:rgb(255,183,50);"/>
    </g>
    <g transform="matrix(1.59105,0,0,1.59105,21.5017,-203.518)">
        <ellipse cx="334.776" cy="328.774" rx="13.419" ry="12.387" style="fill:rgb(255,183,50);"/>
    </g>
    <g transform="matrix(1,0,0,1,-8.11801,-9.07462)">
        <ellipse cx="334.776" cy="328.774" rx="13.419" ry="12.387" style="fill:white;"/>
    </g>
    <g transform="matrix(1,0,0,1,218.645,-9.07462)">
        <ellipse cx="334.776" cy="328.774" rx="13.419" ry="12.387" style="fill:rgb(255,254,250);"/>
    </g>
    <g transform="matrix(6.22372e-17,-1.01641,1.16842,7.15452e-17,-217.592,1312.09)">
        <path d="M832.325,456.774C810.106,456.774 792.067,509.504 792.067,574.452C792.067,639.4 810.106,692.129 832.325,692.129C825.659,664.671 820.247,621.394 820.247,574.452C820.247,527.509 825.659,484.232 832.325,456.774Z" style="fill:rgb(255,252,121);"/>
    </g>
    <g transform="matrix(4.32207e-17,-0.705847,1.09438,6.70114e-17,-174.273,1055.63)">
        <path d="M832.325,456.774C810.106,456.774 792.067,509.504 792.067,574.452C792.067,639.4 810.106,692.129 832.325,692.129C825.659,664.671 820.247,621.394 820.247,574.452C820.247,527.509 825.659,484.232 832.325,456.774Z" style="fill:rgb(255,252,240);"/>
    </g>
    <g transform="matrix(0.279795,-0.0749709,0.184395,0.688172,153.21,279.889)">
        <path d="M53.632,137.436C43.84,137.436 35.89,153.336 35.89,172.92C35.89,192.504 43.84,208.403 53.632,208.403C50.694,200.124 48.309,187.074 48.309,172.92C48.309,158.765 50.694,145.715 53.632,137.436Z" style="stroke:black;stroke-width:1.43px;"/>
    </g>
    <g transform="matrix(0.0811164,-0.30273,0.744582,0.19951,194.292,613.986)">
        <path d="M53.632,137.436C43.84,137.436 35.89,153.336 35.89,172.92C35.89,192.504 43.84,208.403 53.632,208.403C50.694,200.124 48.309,187.074 48.309,172.92C48.309,158.765 50.694,145.715 53.632,137.436Z" style="stroke:black;stroke-width:1.32px;"/>
    </g>
    <g transform="matrix(-0.0624161,-0.307132,0.755407,-0.153516,466.698,674.086)">
        <path d="M53.632,137.436C43.84,137.436 35.89,153.336 35.89,172.92C35.89,192.504 43.84,208.403 53.632,208.403C50.694,200.124 48.309,187.074 48.309,172.92C48.309,158.765 50.694,145.715 53.632,137.436Z" style="stroke:black;stroke-width:1.32px;"/>
    </g>
    <g transform="matrix(-0.299563,0.172953,-0.425386,-0.736791,817.116,492.922)">
        <path d="M53.632,137.436C43.84,137.436 35.89,153.336 35.89,172.92C35.89,192.504 43.84,208.403 53.632,208.403C50.694,200.124 48.309,187.074 48.309,172.92C48.309,158.765 50.694,145.715 53.632,137.436Z" style="stroke:black;stroke-width:1.2px;"/>
    </g>
    <g transform="matrix(-0.322208,0.186027,-0.457543,-0.792487,850.803,482.455)">
        <path d="M53.632,137.436C43.84,137.436 35.89,153.336 35.89,172.92C35.89,192.504 43.84,208.403 53.632,208.403C50.694,200.124 48.309,187.074 48.309,172.92C48.309,158.765 50.694,145.715 53.632,137.436Z" style="stroke:black;stroke-width:1.12px;"/>
    </g>
    <g transform="matrix(-0.313491,0.180994,-0.445165,-0.771049,875.084,458.263)">
        <path d="M53.632,137.436C43.84,137.436 35.89,153.336 35.89,172.92C35.89,192.504 43.84,208.403 53.632,208.403C50.694,200.124 48.309,187.074 48.309,172.92C48.309,158.765 50.694,145.715 53.632,137.436Z" style="stroke:black;stroke-width:1.15px;"/>
    </g>
    <g transform="matrix(-0.297384,0.171694,-0.422292,-0.731431,895.593,432.701)">
        <path d="M53.632,137.436C43.84,137.436 35.89,153.336 35.89,172.92C35.89,192.504 43.84,208.403 53.632,208.403C50.694,200.124 48.309,187.074 48.309,172.92C48.309,158.765 50.694,145.715 53.632,137.436Z" style="stroke:black;stroke-width:1.21px;"/>
    </g>
    <g transform="matrix(-0.304693,0.175915,-0.432672,-0.749409,924.704,417.12)">
        <path d="M53.632,137.436C43.84,137.436 35.89,153.336 35.89,172.92C35.89,192.504 43.84,208.403 53.632,208.403C50.694,200.124 48.309,187.074 48.309,172.92C48.309,158.765 50.694,145.715 53.632,137.436Z" style="stroke:black;stroke-width:1.18px;"/>
    </g>
    <g transform="matrix(-0.0735459,-0.304658,0.749323,-0.18089,474.235,701.894)">
        <path d="M53.632,137.436C43.84,137.436 35.89,153.336 35.89,172.92C35.89,192.504 43.84,208.403 53.632,208.403C50.694,200.124 48.309,187.074 48.309,172.92C48.309,158.765 50.694,145.715 53.632,137.436Z" style="stroke:black;stroke-width:1.32px;"/>
    </g>
    <g transform="matrix(-0.0763781,-0.30396,0.747607,-0.187856,481.265,727.306)">
        <path d="M53.632,137.436C43.84,137.436 35.89,153.336 35.89,172.92C35.89,192.504 43.84,208.403 53.632,208.403C50.694,200.124 48.309,187.074 48.309,172.92C48.309,158.765 50.694,145.715 53.632,137.436Z" style="stroke:black;stroke-width:1.32px;"/>
    </g>
    <g transform="matrix(0.0811164,-0.30273,0.744582,0.19951,187.798,638.34)">
        <path d="M53.632,137.436C43.84,137.436 35.89,153.336 35.89,172.92C35.89,192.504 43.84,208.403 53.632,208.403C50.694,200.124 48.309,187.074 48.309,172.92C48.309,158.765 50.694,145.715 53.632,137.436Z" style="stroke:black;stroke-width:1.32px;"/>
    </g>
    <g transform="matrix(0.0811164,-0.30273,0.744582,0.19951,180.762,661.07)">
        <path d="M53.632,137.436C43.84,137.436 35.89,153.336 35.89,172.92C35.89,192.504 43.84,208.403 53.632,208.403C50.694,200.124 48.309,187.074 48.309,172.92C48.309,158.765 50.694,145.715 53.632,137.436Z" style="stroke:black;stroke-width:1.32px;"/>
    </g>
    <g transform="matrix(0.294304,-0.169916,0.417919,0.723857,78.4585,306.242)">
        <path d="M53.632,137.436C43.84,137.436 35.89,153.336 35.89,172.92C35.89,192.504 43.84,208.403 53.632,208.403C50.694,200.124 48.309,187.074 48.309,172.92C48.309,158.765 50.694,145.715 53.632,137.436Z" style="stroke:black;stroke-width:1.22px;"/>
    </g>
    <g transform="matrix(0.148519,-0.257242,0.6327,0.36529,35.4194,409.299)">
        <path d="M53.632,137.436C43.84,137.436 35.89,153.336 35.89,172.92C35.89,192.504 43.84,208.403 53.632,208.403C50.694,200.124 48.309,187.074 48.309,172.92C48.309,158.765 50.694,145.715 53.632,137.436Z" style="stroke:black;stroke-width:1.4px;"/>
    </g>
    <g transform="matrix(-0.071237,-0.26586,0.653898,-0.175211,44.1283,539.297)">
        <path d="M53.632,137.436C43.84,137.436 35.89,153.336 35.89,172.92C35.89,192.504 43.84,208.403 53.632,208.403C50.694,200.124 48.309,187.074 48.309,172.92C48.309,158.765 50.694,145.715 53.632,137.436Z" style="stroke:black;stroke-width:1.51px;"/>
    </g>
    <g transform="matrix(-0.194623,-0.194623,0.478686,-0.478686,96.4759,620.087)">
        <path d="M53.632,137.436C43.84,137.436 35.89,153.336 35.89,172.92C35.89,192.504 43.84,208.403 53.632,208.403C50.694,200.124 48.309,187.074 48.309,172.92C48.309,158.765 50.694,145.715 53.632,137.436Z" style="stroke:black;stroke-width:1.51px;"/>
    </g>
    <defs>
        <linearGradient id="_Linear1" x1="0" y1="0" x2="1" y2="0" gradientUnits="userSpaceOnUse" gradientTransform="matrix(-445.205,4.78575e-14,-5.45219e-14,-390.786,970.345,460.762)"><stop offset="0" style="stop-color:rgb(255,208,91);stop-opacity:1"/><stop offset="0.45" style="stop-color:rgb(246,194,64);stop-opacity:1"/><stop offset="1" style="stop-color:rgb(226,161,0);stop-opacity:1"/></linearGradient>
        <linearGradient id="_Linear2" x1="0" y1="0" x2="1" y2="0" gradientUnits="userSpaceOnUse" gradientTransform="matrix(-39.9595,48.6685,-57.5416,-33.7976,817.887,118.12)"><stop offset="0" style="stop-color:rgb(115,51,23);stop-opacity:1"/><stop offset="1" style="stop-color:rgb(57,19,3);stop-opacity:1"/></linearGradient>
    </defs>
</svg>
